<?xml version="1.0" encoding="UTF-8" standalone="no"?>
<svg
   version="1.1"
   width="886.03882"
   height="136.55588"
   style="clip-rule:evenodd;fill-rule:evenodd;image-rendering:optimizeQuality;shape-rendering:geometricPrecision;text-rendering:geometricPrecision"
   id="svg2"
   xmlns="http://www.w3.org/2000/svg"
   xmlns:svg="http://www.w3.org/2000/svg">
  <defs
     id="defs2" />
  <g
     id="g1"
     transform="translate(-67.630464,-440.82199)">
    <path
       fill="#000000"
       stroke="#000000"
       stroke-width="0.5"
       d="m 245.07,522 c -0.07,-20.49 0,-40.98 0.23,-61.46 1.05,-12.36 10.08,-19.46 22.2,-19.42 31.33,-0.08 62.67,-0.06 94,0.06 12.64,0.41 21.24,9.66 20.65,22.32 0.12,23 0.07,46 -0.16,69 -1.35,12.42 -11.54,18.93 -23.49,18.41 -29.67,0.02 -59.33,0.02 -89,0 -18.96,0.39 -25.66,-11.3 -24.43,-28.91 z M 68.16,443.25 c 49.78,-0.03 99.55,-0.04 149.32,-0.05 1.41,0.1 1.76,0.79 1.05,2.07 -23.12,43.44 -46.2,86.9 -69.24,130.38 -0.2,0.5 -0.53,0.88 -0.99,1.14 -14.6,0.21 -29.21,0.28 -43.82,0.22 -0.81,-0.21 -1.74,0.37 -2.11,-0.66 18.59,-37.52 37.07,-75.1 55.42,-112.72 -0.29,-0.44 -0.72,-0.65 -1.27,-0.6 -23.67,0.05 -47.35,0.01 -71.02,-0.13 -2.27,-0.67 -14.96,-16.76 -17.34,-19.65 z M 420.35,574 c 0.01,-42.5 0.01,-85 -0.01,-127.5 -0.12,-1.07 0.08,-2.07 0.59,-2.99 12.5,-0.29 25.02,-0.39 37.54,-0.31 2.01,-0.24 1.71,2.01 1.74,3.3 -0.01,36.66 -0.01,73.32 0,109.98 -0.05,0.51 0.12,0.91 0.53,1.21 22.92,0.12 45.84,0.16 68.77,0.12 0.82,0.11 1.53,-0.09 2.14,-0.59 0.21,-36.9 0.27,-73.81 0.19,-110.72 0.05,-1.26 -0.31,-3.54 1.69,-3.3 11.98,0.02 23.96,0.02 35.95,0 0.52,-0.05 0.96,0.12 1.31,0.51 0.25,43.59 0.34,87.2 0.27,130.81 0.16,0.91 -0.07,1.7 -0.68,2.36 -49.29,0.12 -98.59,0.17 -147.9,0.13 -2.48,0.2 -2.16,-1.18 -2.13,-3.01 z M 579.22,443.23 c 57.09,-0.01 114.18,-0.02 171.27,-0.03 1.92,-0.15 1.31,1.44 0.46,2.28 -2.52,2.5 -13.68,16.46 -15.53,17.39 -15.97,0.17 -31.95,0.22 -47.93,0.17 -0.55,-0.04 -0.99,0.17 -1.3,0.62 -0.09,37.58 -0.19,75.15 -0.3,112.72 -0.33,0.47 -0.79,0.68 -1.37,0.64 -12.01,-0.02 -24.02,-0.02 -36.04,0 -1.4,0.35 -2.24,-0.15 -2.49,-1.5 0.06,-37.3 0.02,-74.59 -0.14,-111.88 -0.33,-0.45 -0.77,-0.66 -1.34,-0.62 -16,0.05 -32.01,0.02 -48.01,-0.06 -1.84,-0.4 -16.03,-17.21 -17.28,-19.73 z M 823.76,446 c -0.01,-1.26 -0.02,-3.02 1.77,-2.8 12.31,0.01 24.63,0.02 36.94,0.03 0.51,-0.06 0.92,0.11 1.22,0.52 0.14,36.91 0.19,73.83 0.13,110.75 0.04,1.28 -0.32,3.57 1.7,3.33 29.02,-0.04 58.03,-0.02 87.05,0.05 0.87,0.03 1.07,0.4 0.61,1.1 -5.07,5.79 -10.14,11.58 -15.21,17.37 -0.74,0.48 -1.56,0.71 -2.46,0.67 -36.67,-0.02 -73.35,-0.02 -110.03,0 -0.6,0.06 -1.09,-0.14 -1.48,-0.59 -0.23,-43.47 -0.31,-86.94 -0.24,-130.43 z m -56.57,127.76 c 0.26,-0.79 0.43,-1.61 0.52,-2.44 0.62,-37.82 0.12,-75.92 0.34,-113.78 -0.17,-3.02 0.26,-5.93 1.31,-8.74 3.97,-3.1 17.8,-1.22 23.11,-1.68 6.98,-0.27 8.49,1.58 8.42,8.41 0.13,32.99 0.16,65.98 0.11,98.97 -0.4,3.66 0.92,15.73 -1.81,18.11 -5.24,2.46 -25.24,0.98 -32,1.15 z M 258.93,472 c -0.03,19.5 0,39.01 0.07,58.51 0.17,3.58 2,5.71 5.5,6.41 32.34,0.17 64.67,0.21 97,0.09 4.23,-0.13 6.52,-2.3 6.87,-6.5 0.3,-22.41 0.34,-44.81 0.11,-67.22 0.1,-6.08 -2.89,-8.86 -8.98,-8.32 -31.67,-0.1 -63.33,-0.06 -95,0.12 -7.87,1.01 -5,11.48 -5.57,16.91 z m 13.73,10 c 0.4,-5.16 4.96,-7.8 9.75,-5.84 7.45,5.85 14.78,11.85 22,18 3.13,3.24 3.28,6.6 0.45,10.08 -6.15,5.1 -16.54,14.21 -22.5,18.49 -7.47,2.92 -13.03,-5.42 -7.43,-11.3 4.33,-3.66 8.68,-7.29 13.06,-10.91 0.73,-0.68 0.75,-1.37 0.07,-2.08 -3.6,-4.18 -15.98,-10.44 -15.4,-16.44 z m 34.28,35 c 0.22,-4.8 2.75,-7.2 7.56,-7.2 11.67,-0.06 23.35,0 35.02,0.16 8.46,2.34 6.53,14.16 -3.02,13.42 -11.34,0.05 -22.68,-0.01 -34.01,-0.16 -3.34,-0.75 -5.19,-2.82 -5.55,-6.22 z m -80.67,59.73 c 4.9,-6.05 9.93,-12 15.1,-17.85 0.85,-0.85 1.89,-1.21 3.12,-1.08 48.01,0.01 96.02,0.02 144.03,0.03 0.87,0.04 1.6,0.37 2.2,1.01 5.16,5.77 10.17,11.65 15.03,17.63 -0.65,0.48 -1.4,0.66 -2.23,0.55 -59.09,0.08 -118.17,-0.02 -177.25,-0.29 z"
       id="path1" />
  </g>
  <g
     id="g2"
     transform="translate(-1237.5557,-407.58548)">
    <path
       fill="#060606"
       stroke="#060606"
       stroke-width="0.5"
       d="m 1934.0352,412.76349 c 0.06,-1.09 -0.21,-2.87 1.43,-2.8 11.99,-0.04 23.98,-0.05 35.97,-0.04 0.98,0.21 2.44,-0.4 3.04,0.65 0.06,43.88 0.09,87.75 0.09,131.63 0.06,0.84 -0.31,1.34 -1.13,1.49 -12.68,0.03 -25.36,0.05 -38.04,0.07 -0.55,0.02 -0.97,-0.21 -1.24,-0.68 -0.11,-43.44 -0.15,-86.88 -0.12,-130.32 z m 3.08,127.76 c 6.76,-0.17 26.76,1.31 32,-1.15 2.73,-2.38 1.41,-14.45 1.81,-18.11 0.05,-32.99 0.02,-65.98 -0.11,-98.97 0.07,-6.83 -1.44,-8.68 -8.42,-8.41 -5.31,0.46 -19.14,-1.42 -23.11,1.68 -1.05,2.81 -1.48,5.72 -1.31,8.74 -0.22,37.86 0.28,75.96 -0.34,113.78 -0.09,0.83 -0.26,1.65 -0.52,2.44 z"
       id="path2" />
  </g>
</svg>
